<svg width="16" height="16" viewBox="0 0 16 16" fill="none" xmlns="http://www.w3.org/2000/svg">
<g clip-path="url(#clip0)">
<path d="M15.9845 4.70404C15.947 3.8539 15.8095 3.26944 15.6126 2.76299C15.4094 2.22541 15.0969 1.74412 14.6874 1.34401C14.2873 0.937683 13.8028 0.621948 13.2714 0.421957C12.7621 0.22502 12.1806 0.0875415 11.3305 0.0500586C10.474 0.00940124 10.2021 0 8.02982 0C5.85753 0 5.58562 0.00940124 4.73231 0.0468842C3.88217 0.0843671 3.29771 0.221967 2.79138 0.418783C2.25368 0.621948 1.77239 0.934509 1.37228 1.34401C0.965956 1.74412 0.650343 2.22858 0.450231 2.75994C0.253294 3.26944 0.115816 3.85073 0.078333 4.70087C0.0376758 5.55736 0.0282745 5.82926 0.0282745 8.00156C0.0282745 10.1739 0.0376758 10.4458 0.0751586 11.2991C0.112641 12.1492 0.250241 12.7337 0.447179 13.2401C0.650343 13.7777 0.965956 14.259 1.37228 14.6591C1.77239 15.0654 2.25686 15.3812 2.78821 15.5812C3.29771 15.7781 3.879 15.9156 4.72926 15.9531C5.58245 15.9907 5.85448 16 8.02677 16C10.1991 16 10.471 15.9907 11.3243 15.9531C12.1744 15.9156 12.7589 15.7781 13.2652 15.5812C14.3405 15.1654 15.1906 14.3153 15.6064 13.2401C15.8032 12.7306 15.9408 12.1492 15.9783 11.2991C16.0157 10.4458 16.0251 10.1739 16.0251 8.00156C16.0251 5.82926 16.022 5.55736 15.9845 4.70404ZM14.5437 11.2366C14.5092 12.018 14.378 12.4399 14.2686 12.7212C13.9997 13.4183 13.4465 13.9715 12.7495 14.2403C12.4682 14.3497 12.0432 14.481 11.2648 14.5153C10.4209 14.5529 10.1678 14.5622 8.033 14.5622C5.89818 14.5622 5.64191 14.5529 4.80105 14.5153C4.01965 14.481 3.59769 14.3497 3.31639 14.2403C2.96952 14.1121 2.65378 13.909 2.39751 13.6433C2.13183 13.3838 1.92867 13.0713 1.80047 12.7244C1.69107 12.4431 1.55982 12.018 1.52551 11.2397C1.48791 10.3958 1.47863 10.1426 1.47863 8.00779C1.47863 5.87297 1.48791 5.6167 1.52551 4.77596C1.55982 3.99455 1.69107 3.5726 1.80047 3.29129C1.92867 2.9443 2.13183 2.62869 2.40068 2.37229C2.66001 2.10661 2.97257 1.90345 3.31956 1.77537C3.60087 1.66597 4.026 1.53472 4.80422 1.50029C5.64814 1.46281 5.90136 1.45341 8.03605 1.45341C10.174 1.45341 10.4271 1.46281 11.268 1.50029C12.0494 1.53472 12.4714 1.66597 12.7527 1.77537C13.0995 1.90345 13.4153 2.10661 13.6715 2.37229C13.9372 2.63174 14.1404 2.9443 14.2686 3.29129C14.378 3.5726 14.5092 3.99761 14.5437 4.77596C14.5811 5.61987 14.5905 5.87297 14.5905 8.00779C14.5905 10.1426 14.5811 10.3927 14.5437 11.2366Z" fill="white"/>
<path d="M8.0297 3.89124C5.76058 3.89124 3.91953 5.73217 3.91953 8.00141C3.91953 10.2707 5.76058 12.1116 8.0297 12.1116C10.2989 12.1116 12.1399 10.2707 12.1399 8.00141C12.1399 5.73217 10.2989 3.89124 8.0297 3.89124ZM8.0297 10.6676C6.55761 10.6676 5.36353 9.47362 5.36353 8.00141C5.36353 6.5292 6.55761 5.33524 8.0297 5.33524C9.50191 5.33524 10.6959 6.5292 10.6959 8.00141C10.6959 9.47362 9.50191 10.6676 8.0297 10.6676Z" fill="white"/>
<path d="M13.262 3.72931C13.262 4.2592 12.8323 4.68885 12.3023 4.68885C11.7724 4.68885 11.3428 4.2592 11.3428 3.72931C11.3428 3.1993 11.7724 2.76978 12.3023 2.76978C12.8323 2.76978 13.262 3.1993 13.262 3.72931Z" fill="white"/>
</g>
<defs>
<clipPath id="clip0">
<rect width="16" height="16" fill="white"/>
</clipPath>
</defs>
</svg>
